@startuml DiagrammaClassiEssenziale
skinparam linetype ortho
'left to right direction


'****************** CLASSI ******************
class Contact {
    - String name 
    - String surname 
    - String[] numbers
    - String[] emails
    - Byte[] profilePicture
    - Set<Integer> tagIndexes  
    - int id
}

class AddressBook {
    - {static} AddressBook instance
    - ObservableList<Contact> contacts
    - ObservableSet<String> tags
    - String dbUrl
    - Database db

    + void saveConfig()
    + void loadConfig()
    + void saveOBJ()
    + AddressBook loadOBJ()
    + void saveToDB()
    + AddressBook loadFromDB()    
}

class MainController {
    - AddressBook addressBook

    - void onAddContact()
    - void onContactClicked()
    - void onSaveContact()
    - void onModifyContact()
    - void onRemoveContact()
    - void onCancel()
    - void showImportPopup()
    - void showExportPopup()
    - void showConfigPopup()
    - void showImagePopup()
    - void showManageTagsPopup()
}

class Converter {
    + {static} Collection<Contact> parseCSV()
    + {static} Collection<Contact> parseVCard()
    + {static} void onExportCSV()
    + {static} void onExportVCard()
}

class ImportPopupController {
    - ContactManager contactManager
    - void onImport()
}

class ExportPopupController {
    - ContactManager contactManager
    - TagManager tagManager
    - void onExport()
}

class ManageTagsPopupController {
    - TagManager tagManager
    - void onAdd()
    - void onUpdate()
    - void onDelete()
}

class ImagePopupController {
    + File getSelectedImage()
}

class ConfirmPopupController {
    + onConfirm()
    + onCancel()
}

class ConfigPopupController {
    - AddressBook addressBook

    - void onVerify()
    - void onConfirm()
}

class Tag {
    - final int id
    - String descrizione
}

class Database {
    + {static} boolean verifyDBUrl(String url)
    + void insertContact(Contact c)
    + void removeTag(Tag tag)
    + Collection<Contact> getAllContacts()
    + Collection<Tag> getAllTags()
} 

'****************** INTERFACCE ******************
interface Serializable

interface TagManager {
}

interface ContactManager {
}

'****************** RELAZIONI ******************
Contact ..|> Serializable

Tag ..|> Serializable

AddressBook "1" o-- "0..*" Contact
AddressBook "1" *-- "0..1" Database
AddressBook "1" o-- "0..*" Tag
AddressBook ..|> TagManager
AddressBook ..|> ContactManager

MainController "1" o-- "1" AddressBook
MainController ..> ImagePopupController
MainController ..> ConfirmPopupController
MainController ..> Converter

Converter ..> Contact

ImportPopupController "1" o-- "1" ContactManager
ImportPopupController ..> Converter

ExportPopupController "1" o-- "1" ContactManager
ExportPopupController "1" o-- "1" TagManager
ExportPopupController ..> Converter

ManageTagsPopupController .> ConfirmPopupController
ManageTagsPopupController "1" o-- "1" TagManager

ConfigPopupController "1" o-- "1" AddressBook

Database ..> Converter

@enduml